<?xml version="1.0" standalone="no"?>
<!DOCTYPE svg PUBLIC "-//W3C//DTD SVG 20010904//EN"
 "http://www.w3.org/TR/2001/REC-SVG-20010904/DTD/svg10.dtd">
<svg version="1.0" xmlns="http://www.w3.org/2000/svg"
 width="700.000000pt" height="400.000000pt" viewBox="0 0 700.000000 400.000000"
 preserveAspectRatio="xMidYMid meet">
<metadata>
Created by potrace 1.16, written by Peter Selinger 2001-2019
</metadata>
<g transform="translate(0.000000,400.000000) scale(0.100000,-0.100000)"
fill="#000000" stroke="none">
<path d="M2490 3184 c-146 -102 -350 -244 -455 -316 -104 -72 -243 -169 -307
-215 l-118 -84 0 -275 c0 -154 4 -274 9 -274 5 0 42 24 82 53 41 29 124 89
184 132 61 44 164 118 230 166 66 47 246 177 400 287 154 111 357 256 450 324
94 67 247 178 342 245 95 68 175 128 178 133 4 6 -128 10 -362 9 l-368 0 -265
-185z"/>
<path d="M3530 3361 c0 -6 78 -66 173 -134 229 -164 705 -506 947 -681 547
-393 734 -526 742 -526 4 0 7 125 6 277 l-3 277 -85 60 c-102 71 -642 446
-755 524 -44 30 -130 91 -191 134 l-112 78 -361 0 c-220 0 -361 -4 -361 -9z"/>
<path d="M2848 2663 l-3 -178 -163 -5 c-157 -5 -165 -6 -183 -29 -18 -22 -19
-46 -19 -507 l0 -483 24 -28 24 -28 296 -3 296 -3 0 721 0 720 -135 0 -135 0
-2 -177z m-24 -309 c14 -14 16 -63 14 -431 -3 -383 -4 -417 -20 -427 -13 -8
-23 -8 -35 0 -17 10 -18 44 -21 429 -1 300 1 422 9 431 15 18 34 18 53 -2z"/>
<path d="M3205 2468 c-3 -7 -4 -249 -2 -538 l2 -525 140 0 140 0 3 484 c2 505
3 512 44 490 16 -9 18 -28 18 -219 l0 -210 135 0 135 0 0 245 c0 238 -1 245
-22 265 -21 19 -34 20 -305 20 -218 0 -285 -3 -288 -12z"/>
<path d="M3890 1956 l0 -525 22 -15 c19 -14 65 -16 300 -16 265 0 279 1 298
20 19 19 20 33 20 540 l0 520 -135 0 -135 0 0 -490 c0 -474 -1 -490 -19 -500
-27 -14 -47 -13 -65 6 -14 14 -16 73 -16 500 l0 484 -135 0 -135 0 0 -524z"/>
<path d="M1616 1992 c-3 -3 -6 -128 -6 -278 l0 -272 213 -148 c204 -142 347
-242 751 -523 l189 -131 358 0 c198 0 360 4 363 9 3 5 -7 17 -22 27 -25 16
-374 267 -1414 1015 -235 169 -429 304 -432 301z"/>
<path d="M5090 1783 c-157 -113 -436 -314 -620 -446 -184 -133 -450 -324 -590
-425 -140 -101 -279 -199 -307 -219 -29 -20 -53 -40 -53 -44 0 -5 164 -9 363
-9 l364 0 59 42 c32 23 174 121 314 218 140 96 373 258 518 359 l262 182 0
275 c0 213 -3 274 -12 274 -7 -1 -141 -94 -298 -207z"/>
</g>
</svg>
